<?xml version="1.0" encoding="UTF-8" standalone="no"?>
<!-- Created with Inkscape (http://www.inkscape.org/) -->

<svg
   width="167.86035mm"
   height="60.197487mm"
   viewBox="0 0 167.86035 60.197487"
   version="1.1"
   id="svg8"
   inkscape:version="1.1.2 (0a00cf5339, 2022-02-04)"
   sodipodi:docname="logo_u_info_server.svg"
   xmlns:inkscape="http://www.inkscape.org/namespaces/inkscape"
   xmlns:sodipodi="http://sodipodi.sourceforge.net/DTD/sodipodi-0.dtd"
   xmlns:xlink="http://www.w3.org/1999/xlink"
   xmlns="http://www.w3.org/2000/svg"
   xmlns:svg="http://www.w3.org/2000/svg"
   xmlns:rdf="http://www.w3.org/1999/02/22-rdf-syntax-ns#"
   xmlns:cc="http://creativecommons.org/ns#"
   xmlns:dc="http://purl.org/dc/elements/1.1/">
  <defs
     id="defs2">
    <linearGradient
       inkscape:collect="always"
       id="linearGradient2606">
      <stop
         style="stop-color:#77216f;stop-opacity:0;"
         offset="0"
         id="stop2604" />
      <stop
         style="stop-color:#77216f;stop-opacity:1;"
         offset="1"
         id="stop2602" />
    </linearGradient>
    <linearGradient
       inkscape:collect="always"
       id="linearGradient2598">
      <stop
         style="stop-color:#77216f;stop-opacity:0;"
         offset="0"
         id="stop2596" />
      <stop
         style="stop-color:#77216f;stop-opacity:1;"
         offset="1"
         id="stop2594" />
    </linearGradient>
    <linearGradient
       inkscape:collect="always"
       xlink:href="#linearGradient2598"
       id="linearGradient2558"
       x1="171.43768"
       y1="50.498612"
       x2="182.94799"
       y2="50.498612"
       gradientUnits="userSpaceOnUse" />
    <linearGradient
       inkscape:collect="always"
       xlink:href="#linearGradient2606"
       id="linearGradient2560"
       x1="171.47496"
       y1="57.119479"
       x2="188.48053"
       y2="57.119479"
       gradientUnits="userSpaceOnUse" />
  </defs>
  <sodipodi:namedview
     id="base"
     pagecolor="#ffffff"
     bordercolor="#666666"
     borderopacity="1.0"
     inkscape:pageopacity="0.0"
     inkscape:pageshadow="2"
     inkscape:zoom="1.4"
     inkscape:cx="398.57143"
     inkscape:cy="111.07143"
     inkscape:document-units="mm"
     inkscape:current-layer="layer1"
     showgrid="false"
     inkscape:window-width="1850"
     inkscape:window-height="1016"
     inkscape:window-x="0"
     inkscape:window-y="0"
     inkscape:window-maximized="1"
     fit-margin-top="0"
     fit-margin-left="0"
     fit-margin-right="0"
     fit-margin-bottom="0"
     inkscape:pagecheckerboard="0" />
  <metadata
     id="metadata5">
    <rdf:RDF>
      <cc:Work
         rdf:about="">
        <dc:format>image/svg+xml</dc:format>
        <dc:type
           rdf:resource="http://purl.org/dc/dcmitype/StillImage" />
      </cc:Work>
    </rdf:RDF>
  </metadata>
  <g
     inkscape:label="Layer 1"
     inkscape:groupmode="layer"
     id="layer1"
     transform="translate(-34.023991,-37.001087)">
    <path
       sodipodi:nodetypes="ccc"
       inkscape:connector-curvature="0"
       id="path3744"
       d="M 34.023991,97.198572 C 83.349321,67.78716 146.52737,61.015227 201.88434,95.592539 130.73766,38.070346 57.035084,75.960427 34.023991,97.198572 Z"
       style="fill:#000000;fill-opacity:1;stroke:none;stroke-width:0.3333419;stroke-linecap:butt;stroke-linejoin:miter;stroke-miterlimit:4;stroke-dasharray:none;stroke-opacity:1"
       inkscape:export-xdpi="96"
       inkscape:export-ydpi="96" />
    <path
       id="path4551"
       style="fill:#fe0000;fill-opacity:1;stroke:none;stroke-width:1.25987;stroke-linecap:butt;stroke-linejoin:miter;stroke-miterlimit:4;stroke-dasharray:none;stroke-opacity:1"
       d="M 314.5625 0 L 316.08008 52.025391 C 227.98285 56.320419 160.33623 72.385551 89.693359 104.05273 L 112.03906 155.35742 C 162.12931 132.3099 328.57449 61.60317 520.46484 149.68359 L 548.29688 86 L 545.06055 86 L 537.77344 93.289062 C 537.98243 93.758768 538.09961 94.275704 538.09961 94.820312 C 538.09961 96.909828 536.38834 98.630859 534.29883 98.630859 C 532.20932 98.630859 530.49023 96.909828 530.49023 94.820312 C 530.49023 92.730797 532.20932 91.019531 534.29883 91.019531 C 534.93014 91.019531 535.52517 91.177349 536.05078 91.453125 L 543.65234 83.859375 A 1.2568186 1.2568186 0 0 1 544.53711 83.490234 L 549.39453 83.490234 L 550.31836 81.375 L 534.53711 81.375 L 529.33984 90.373047 A 1.2568186 1.2568186 0 0 1 528.24609 91 L 514.97461 91 C 514.48666 92.539192 513.04412 93.667969 511.35156 93.667969 C 509.26205 93.667969 507.54102 91.948894 507.54102 89.859375 C 507.54102 87.769859 509.26205 86.050781 511.35156 86.050781 C 512.95879 86.050781 514.33736 87.069722 514.89062 88.490234 L 527.52344 88.490234 L 532.7207 79.492188 A 1.2568186 1.2568186 0 0 1 533.80469 78.865234 L 551.41602 78.865234 L 552.37305 76.671875 L 529.61328 76.671875 A 1.2568186 1.2568186 0 0 1 528.72656 76.302734 L 521.33008 68.90625 L 510.4707 68.90625 A 1.256693 1.256693 0 0 1 509.2168 67.650391 A 1.256693 1.256693 0 0 1 510.4707 66.388672 L 521.84766 66.388672 A 1.2568186 1.2568186 0 0 1 522.73242 66.757812 L 530.12891 74.154297 L 553.47461 74.154297 L 554.42578 71.976562 L 539.17969 71.976562 A 1.2568186 1.2568186 0 0 1 538.29297 71.607422 L 524.53711 57.851562 C 524.02409 58.111781 523.44681 58.261719 522.83594 58.261719 C 520.74643 58.261719 519.02734 56.542641 519.02734 54.453125 C 519.02734 52.363606 520.74643 50.650391 522.83594 50.650391 C 524.92545 50.650391 526.63672 52.363606 526.63672 54.453125 C 526.63672 55.023051 526.50696 55.56329 526.2793 56.050781 A 1.256693 1.256693 0 0 1 526.3125 56.076172 L 539.70312 69.458984 L 555.52539 69.458984 L 556.55078 67.113281 L 543.20703 67.113281 A 1.256693 1.256693 0 0 1 541.95117 65.857422 A 1.256693 1.256693 0 0 1 543.20703 64.595703 L 557.65234 64.595703 L 563.11523 52.09375 C 497.76909 25.538275 429.80392 0.85180346 314.5625 0 z M 522.83594 52.835938 C 521.92707 52.835938 521.21289 53.544232 521.21289 54.453125 C 521.21289 55.362014 521.92707 56.076172 522.83594 56.076172 C 523.74484 56.076172 524.45312 55.362014 524.45312 54.453125 C 524.45312 53.544232 523.74484 52.835938 522.83594 52.835938 z M 511.35156 88.236328 C 510.4427 88.236328 509.72656 88.950486 509.72656 89.859375 C 509.72656 90.768268 510.4427 91.484375 511.35156 91.484375 C 512.26046 91.484375 512.9668 90.768268 512.9668 89.859375 C 512.9668 88.950486 512.26046 88.236328 511.35156 88.236328 z M 534.29883 93.205078 C 533.38997 93.205082 532.67383 93.911423 532.67383 94.820312 C 532.67383 95.729202 533.38997 96.445312 534.29883 96.445312 C 535.20773 96.445312 535.91602 95.729202 535.91602 94.820312 C 535.91602 93.911423 535.20773 93.205078 534.29883 93.205078 z "
       transform="matrix(0.26458333,0,0,0.26458333,34.023991,37.001087)" />
    <g
       id="text4555"
       style="font-style:normal;font-variant:normal;font-weight:normal;font-stretch:normal;font-size:50.79999924px;line-height:1.25;font-family:Arial;-inkscape-font-specification:'Arial, Normal';font-variant-ligatures:normal;font-variant-caps:normal;font-variant-numeric:normal;font-feature-settings:normal;text-align:start;letter-spacing:0px;word-spacing:0px;writing-mode:lr-tb;text-anchor:start;fill:#ffffff;fill-opacity:1;stroke:none;stroke-width:0.77159506"
       transform="matrix(0.2861304,0,0,0.2861304,-11.146405,83.798165)"
       aria-label="IES Benigasló"
       inkscape:export-xdpi="96"
       inkscape:export-ydpi="96">
      <path
         inkscape:connector-curvature="0"
         id="path848"
         style="font-style:normal;font-variant:normal;font-weight:normal;font-stretch:normal;font-size:50.79999924px;font-family:Arial;-inkscape-font-specification:'Arial, Normal';font-variant-ligatures:normal;font-variant-caps:normal;font-variant-numeric:normal;font-feature-settings:normal;text-align:start;writing-mode:lr-tb;text-anchor:start;fill:#ffffff;fill-opacity:1;stroke-width:0.77159506"
         d="m 311.91777,-44.935169 -10.64365,-34.771101 4.60136,-1.408504 10.64365,34.771101 z" />
      <path
         inkscape:connector-curvature="0"
         id="path850"
         style="font-style:normal;font-variant:normal;font-weight:normal;font-stretch:normal;font-size:50.79999924px;font-family:Arial;-inkscape-font-specification:'Arial, Normal';font-variant-ligatures:normal;font-variant-caps:normal;font-variant-numeric:normal;font-feature-settings:normal;text-align:start;writing-mode:lr-tb;text-anchor:start;fill:#ffffff;fill-opacity:1;stroke-width:0.77159506"
         d="m 324.45668,-49.518675 -8.96697,-35.240741 25.48102,-6.483628 1.05818,4.158696 -20.81752,5.297002 2.74637,10.793378 19.49539,-4.960586 1.05206,4.134657 -19.49539,4.960586 3.0522,11.995314 21.63483,-5.504966 1.05818,4.158696 z" />
      <path
         inkscape:connector-curvature="0"
         id="path852"
         style="font-style:normal;font-variant:normal;font-weight:normal;font-stretch:normal;font-size:50.79999924px;font-family:Arial;-inkscape-font-specification:'Arial, Normal';font-variant-ligatures:normal;font-variant-caps:normal;font-variant-numeric:normal;font-feature-settings:normal;text-align:start;writing-mode:lr-tb;text-anchor:start;fill:#ffffff;fill-opacity:1;stroke-width:0.77159506"
         d="m 352.38085,-68.670856 4.39343,-1.208353 q 0.80886,2.625742 2.27296,4.147963 1.48402,1.493354 4.12055,2.119913 2.63207,0.60216 5.6819,0.04343 2.70824,-0.496149 4.63462,-1.681238 1.92638,-1.185088 2.67195,-2.759073 0.76549,-1.602853 0.46155,-3.26196 -0.30842,-1.683505 -1.51233,-2.749043 -1.20837,-1.089937 -3.60949,-1.532666 -1.54232,-0.29745 -6.6854,-0.565682 -5.14754,-0.292632 -7.31604,-0.979718 -2.80769,-0.872595 -4.43848,-2.616454 -1.61085,-1.772727 -2.0623,-4.236989 -0.49615,-2.708249 0.61186,-5.332115 1.10354,-2.648266 3.83229,-4.409045 2.72874,-1.760778 6.33974,-2.422311 3.97698,-0.728579 7.23931,0.01029 3.28226,0.710003 5.37289,2.899186 2.09063,2.189183 2.78922,5.314258 l -4.47556,1.172965 q -0.98729,-3.324362 -3.42733,-4.667792 -2.41563,-1.347899 -6.539,-0.592501 -4.29416,0.786687 -5.97991,2.734653 -1.66583,1.919097 -1.25907,4.139373 0.35311,1.927492 1.97179,2.917043 1.59429,0.994021 7.59373,1.256671 6.01938,0.233783 8.34525,0.816385 3.38675,0.867383 5.28182,2.815 1.8906,1.923219 2.41803,4.802258 0.52297,2.85464 -0.64688,5.691575 -1.17431,2.812536 -3.98929,4.790853 -2.79505,1.949449 -6.62564,2.651209 -4.85533,0.889492 -8.40839,0.0778 -3.52867,-0.816166 -5.92586,-3.302232 -2.37726,-2.514934 -3.13192,-6.083653 z" />
      <path
         inkscape:connector-curvature="0"
         id="path854"
         style="font-style:normal;font-variant:normal;font-weight:normal;font-stretch:normal;font-size:50.79999924px;font-family:Arial;-inkscape-font-specification:'Arial, Normal';font-variant-ligatures:normal;font-variant-caps:normal;font-variant-numeric:normal;font-feature-settings:normal;text-align:start;writing-mode:lr-tb;text-anchor:start;fill:#ffffff;fill-opacity:1;stroke-width:0.77159506"
         d="m 402.23119,-65.583342 -2.96798,-36.242358 13.59706,-1.1135 q 4.15328,-0.34013 6.7413,0.56788 2.61072,0.88127 4.20815,3.06502 1.62013,2.156994 1.82461,4.653908 0.19031,2.323862 -0.90247,4.479033 -1.09279,2.155172 -3.53589,3.624518 3.36697,0.694891 5.31253,2.87501 1.97029,2.178094 2.22943,5.342501 0.20853,2.546359 -0.69905,4.83569 -0.88488,2.262585 -2.36991,3.578808 -1.48502,1.316224 -3.83244,2.130652 -2.32471,0.787683 -5.78578,1.071119 z m 3.07519,-21.4064 7.83685,-0.64178 q 3.18913,-0.261166 4.53914,-0.794813 1.78488,-0.693699 2.59634,-2.029425 0.83619,-1.337751 0.6803,-3.24134 -0.1478,-1.8047 -1.12441,-3.093548 -0.97864,-1.313568 -2.62606,-1.676412 -1.64944,-0.387565 -5.55551,-0.06769 l -7.24352,0.593191 z m 1.37062,16.736745 9.0235,-0.738958 q 2.32386,-0.190307 3.24912,-0.440293 1.63208,-0.432307 2.68788,-1.215626 1.0558,-0.783318 1.66543,-2.152292 0.60761,-1.393696 0.46589,-3.124231 -0.16601,-2.027198 -1.3258,-3.425483 -1.16182,-1.423007 -3.06455,-1.864492 -1.88004,-0.468232 -5.34111,-0.184797 l -8.38073,0.68632 z" />
      <path
         inkscape:connector-curvature="0"
         id="path856"
         style="font-style:normal;font-variant:normal;font-weight:normal;font-stretch:normal;font-size:50.79999924px;font-family:Arial;-inkscape-font-specification:'Arial, Normal';font-variant-ligatures:normal;font-variant-caps:normal;font-variant-numeric:normal;font-feature-settings:normal;text-align:start;writing-mode:lr-tb;text-anchor:start;fill:#ffffff;fill-opacity:1;stroke-width:0.77159506"
         d="m 452.85398,-76.800971 4.62145,0.503648 q -1.03276,4.058543 -3.95188,6.333468 -2.91913,2.274925 -7.50751,2.341366 -5.77889,0.08368 -9.22813,-3.413818 -3.4248,-3.522658 -3.51782,-9.946398 -0.0962,-6.64696 3.27329,-10.36723 3.36953,-3.720269 8.82599,-3.79928 5.28285,-0.0765 8.6832,3.471323 3.40036,3.547819 3.49481,10.070768 0.006,0.396833 -0.008,1.190859 l -19.64325,0.284437 q 0.31087,4.336774 2.55165,6.611405 2.24079,2.274631 5.53946,2.226866 2.45541,-0.03556 4.17288,-1.350403 1.71747,-1.314848 2.69342,-4.157011 z m -14.76255,-7.005157 14.70764,-0.212969 q -0.34575,-3.31917 -1.75873,-4.960798 -2.17033,-2.548531 -5.56821,-2.499329 -3.07546,0.04453 -5.15383,2.133633 -2.05357,2.088741 -2.22687,5.539463 z" />
      <path
         inkscape:connector-curvature="0"
         id="path858"
         style="font-style:normal;font-variant:normal;font-weight:normal;font-stretch:normal;font-size:50.79999924px;font-family:Arial;-inkscape-font-specification:'Arial, Normal';font-variant-ligatures:normal;font-variant-caps:normal;font-variant-numeric:normal;font-feature-settings:normal;text-align:start;writing-mode:lr-tb;text-anchor:start;fill:#ffffff;fill-opacity:1;stroke-width:0.77159506"
         d="m 462.76713,-68.359818 1.28585,-26.311165 4.01357,0.19615 -0.18283,3.741029 q 3.11058,-4.193966 8.58588,-3.926389 2.37841,0.11623 4.31804,1.080224 1.96562,0.940417 2.88882,2.376255 0.9232,1.435838 1.22637,3.362894 0.18721,1.250864 0.0359,4.347754 l -0.79064,16.178153 -4.45952,-0.217941 0.78216,-16.004727 q 0.13319,-2.725263 -0.32171,-4.088546 -0.45368,-1.388058 -1.7528,-2.246244 -1.27312,-0.88175 -3.05693,-0.968926 -2.84914,-0.13924 -5.01863,1.567638 -2.14473,1.708089 -2.39173,6.762213 l -0.70225,14.369569 z" />
      <path
         inkscape:connector-curvature="0"
         id="path860"
         style="font-style:normal;font-variant:normal;font-weight:normal;font-stretch:normal;font-size:50.79999924px;font-family:Arial;-inkscape-font-specification:'Arial, Normal';font-variant-ligatures:normal;font-variant-caps:normal;font-variant-numeric:normal;font-feature-settings:normal;text-align:start;writing-mode:lr-tb;text-anchor:start;fill:#ffffff;fill-opacity:1;stroke-width:0.77159506"
         d="m 493.43649,-97.876304 0.48311,-5.111786 4.44504,0.4201 -0.48312,5.111786 z m -2.93836,31.090558 2.47858,-26.225713 4.44504,0.4201 -2.47859,26.225713 z" />
      <path
         inkscape:connector-curvature="0"
         id="path862"
         style="font-style:normal;font-variant:normal;font-weight:normal;font-stretch:normal;font-size:50.79999924px;font-family:Arial;-inkscape-font-specification:'Arial, Normal';font-variant-ligatures:normal;font-variant-caps:normal;font-variant-numeric:normal;font-feature-settings:normal;text-align:start;writing-mode:lr-tb;text-anchor:start;fill:#ffffff;fill-opacity:1;stroke-width:0.77159506"
         d="m 500.23486,-64.248978 4.2076,1.246879 q -0.0114,2.02759 1.08797,3.110112 1.47171,1.460896 4.32066,1.864126 3.06999,0.434515 4.91387,-0.557104 1.84388,-0.99162 2.74617,-3.118584 0.53502,-1.30213 1.12226,-5.62815 -3.38125,3.003645 -7.70379,2.391848 -5.37862,-0.76127 -7.77658,-5.05887 -2.39797,-4.2976 -1.62974,-9.72534 0.52837,-3.733106 2.32411,-6.685587 1.79921,-2.977042 4.59677,-4.334719 2.82212,-1.354201 6.28506,-0.864068 4.61727,0.653511 7.08521,4.810703 l 0.44494,-3.143668 4.07694,0.577036 -3.19107,22.545996 q -0.86208,6.090857 -2.47268,8.443246 -1.58951,2.380424 -4.49967,3.471645 -2.88559,1.094698 -6.81518,0.538518 -4.66638,-0.660463 -7.24095,-3.179321 -2.57803,-2.494298 -1.8819,-6.704698 z m 5.87719,-15.151279 q -0.72651,5.13302 0.97825,7.77929 1.70477,2.646269 4.77476,3.080784 3.04543,0.431039 5.43869,-1.610158 2.39674,-2.065757 3.10587,-7.075979 0.67784,-4.789182 -1.11473,-7.523035 -1.76802,-2.730377 -4.76433,-3.154464 -2.94719,-0.417135 -5.35088,1.697742 -2.40022,2.090317 -3.06763,6.80582 z" />
      <path
         inkscape:connector-curvature="0"
         id="path864"
         style="font-style:normal;font-variant:normal;font-weight:normal;font-stretch:normal;font-size:50.79999924px;font-family:Arial;-inkscape-font-specification:'Arial, Normal';font-variant-ligatures:normal;font-variant-caps:normal;font-variant-numeric:normal;font-feature-settings:normal;text-align:start;writing-mode:lr-tb;text-anchor:start;fill:#ffffff;fill-opacity:1;stroke-width:0.77159506"
         d="m 545.95871,-61.952892 q -2.86238,1.550764 -5.29877,1.923876 -2.41212,0.378234 -4.98475,-0.164693 -4.24727,-0.896342 -6.09329,-3.440765 -1.8409,-2.568693 -1.15968,-5.796617 0.39951,-1.893069 1.57677,-3.267087 1.20665,-1.393167 2.7898,-2.047749 1.60742,-0.649461 3.45731,-0.766083 1.35802,-0.06832 4.02151,0.16422 5.42405,0.485563 8.10827,0.139401 0.21378,-0.892872 0.265,-1.135573 0.56341,-2.669712 -0.44387,-4.023087 -1.3622,-1.833891 -4.66294,-2.530477 -3.0823,-0.650488 -4.79327,0.129228 -1.68157,0.760567 -2.96418,3.354553 l -4.14861,-1.483947 q 1.16126,-2.619595 2.84953,-4.012525 1.69339,-1.4172 4.407,-1.782511 2.71872,-0.389581 6.04373,0.312127 3.30073,0.696586 5.19979,1.908595 1.89905,1.21201 2.61888,2.606123 0.72495,1.369844 0.73425,3.247783 -0.0172,1.162522 -0.63181,4.074935 l -1.22927,5.824826 q -1.28561,6.091797 -1.36181,7.774235 -0.0468,1.663291 0.46593,3.317914 l -4.56278,-0.962928 q -0.39273,-1.50254 -0.20274,-3.363774 z m 1.69497,-9.833412 q -2.58335,0.468853 -7.4837,0.144513 -2.77594,-0.180216 -3.9948,0.06958 -1.21886,0.249792 -2.02537,1.068277 -0.80139,0.794215 -1.04212,1.93491 -0.36878,1.747448 0.69595,3.188999 1.089,1.446672 3.63736,1.984478 2.52409,0.532683 4.72046,-0.144594 2.20149,-0.701546 3.52839,-2.424251 1.01627,-1.331939 1.62578,-4.220082 z" />
      <path
         inkscape:connector-curvature="0"
         id="path866"
         style="font-style:normal;font-variant:normal;font-weight:normal;font-stretch:normal;font-size:50.79999924px;font-family:Arial;-inkscape-font-specification:'Arial, Normal';font-variant-ligatures:normal;font-variant-caps:normal;font-variant-numeric:normal;font-feature-settings:normal;text-align:start;writing-mode:lr-tb;text-anchor:start;fill:#ffffff;fill-opacity:1;stroke-width:0.77159506"
         d="m 555.96531,-64.85607 4.43907,0.520931 q -0.35689,2.656185 0.88644,4.472271 1.26721,1.82277 4.20533,2.644915 2.96201,0.828829 4.72944,0.03552 1.77412,-0.817198 2.22864,-2.441523 0.40773,-1.457115 -0.62435,-2.647423 -0.7234,-0.820603 -3.9875,-2.68699 -4.39545,-2.51781 -5.99413,-3.892423 -1.56811,-1.391816 -2.09581,-3.187957 -0.49713,-1.813344 0.0242,-3.676541 0.47457,-1.695986 1.64,-2.915323 1.19601,-1.23654 2.80105,-1.817715 1.21047,-0.459769 3.07071,-0.480143 1.89081,-0.03758 3.87344,0.517203 2.9859,0.835514 4.99066,2.323756 2.02865,1.494927 2.68916,3.276715 0.66719,1.7579 0.3848,4.331904 l -4.36455,-0.603111 q 0.26145,-2.038954 -0.81653,-3.525441 -1.0541,-1.479802 -3.56225,-2.181633 -2.96201,-0.828829 -4.50207,-0.203714 -1.54007,0.625115 -1.90769,1.938907 -0.23395,0.83605 0.10441,1.65194 0.33168,0.839777 1.32738,1.607786 0.57811,0.419342 3.49058,2.161581 4.22156,2.494908 5.79252,3.784491 1.60153,1.272381 2.21426,3.0408 0.61273,1.768418 -0.002,3.966035 -0.60157,2.149842 -2.40232,3.706555 -1.77018,1.539511 -4.4291,1.928818 -2.65225,0.36542 -5.63814,-0.470093 -4.94464,-1.38361 -6.9735,-4.166471 -2.00498,-2.776177 -1.59198,-7.013626 z" />
      <path
         inkscape:connector-curvature="0"
         id="path868"
         style="font-style:normal;font-variant:normal;font-weight:normal;font-stretch:normal;font-size:50.79999924px;font-family:Arial;-inkscape-font-specification:'Arial, Normal';font-variant-ligatures:normal;font-variant-caps:normal;font-variant-numeric:normal;font-feature-settings:normal;text-align:start;writing-mode:lr-tb;text-anchor:start;fill:#ffffff;fill-opacity:1;stroke-width:0.77159506"
         d="m 579.64004,-49.564341 10.53111,-34.805348 4.27351,1.293042 -10.53111,34.805348 z" />
      <path
         inkscape:connector-curvature="0"
         id="path870"
         style="font-style:normal;font-variant:normal;font-weight:normal;font-stretch:normal;font-size:50.79999924px;font-family:Arial;-inkscape-font-specification:'Arial, Normal';font-variant-ligatures:normal;font-variant-caps:normal;font-variant-numeric:normal;font-feature-settings:normal;text-align:start;writing-mode:lr-tb;text-anchor:start;fill:#ffffff;fill-opacity:1;stroke-width:0.77159506"
         d="m 592.84346,-60.315245 q 2.46966,-6.888022 7.48772,-8.830648 4.18672,-1.608281 8.78652,0.04095 5.11348,1.833412 7.15348,6.359372 2.04838,4.502612 -0.0697,10.409967 -1.71621,4.786591 -4.15173,7.022752 -2.40379,2.221184 -5.70317,2.751019 -3.27601,0.538206 -6.52156,-0.625465 -5.20687,-1.866897 -7.23192,-6.361137 -2.00168,-4.485868 0.25032,-10.766811 z m 4.31961,1.548772 q -1.70784,4.763243 -0.48368,7.889949 1.23254,3.103356 4.38469,4.233541 3.12879,1.121813 6.06079,-0.514723 2.932,-1.636538 4.6817,-6.516526 1.64922,-4.599798 0.39334,-7.711527 -1.22416,-3.126706 -4.32961,-4.240147 -3.15214,-1.130185 -6.07577,0.483003 -2.92362,1.613187 -4.63146,6.37643 z m 10.52385,-13.697359 5.44953,-5.424343 5.51042,1.97573 -7.48092,4.696002 z" />
    </g>
    <g
       id="g1576"
       style="stroke:url(#linearGradient2558)">
      <g
         id="g1725"
         style="fill:none" />
    </g>
    <g
       id="g1580"
       transform="translate(-0.03728,0.48191965)"
       style="fill:none;stroke:url(#linearGradient2560)" />
    <circle
       style="fill:#22ff5f;fill-opacity:1;stroke:none;stroke-width:0.248535;stroke-linecap:round;stroke-linejoin:round"
       id="path1018"
       cx="-23.068497"
       cy="-190.21812"
       r="1.0994046"
       transform="rotate(113.57728)" />
    <circle
       style="fill:#22ff5f;fill-opacity:1;stroke:none;stroke-width:0.248535;stroke-linecap:round;stroke-linejoin:round"
       id="path1018-3"
       cx="-19.528549"
       cy="-190.21812"
       r="1.0994046"
       transform="rotate(113.57728)" />
    <circle
       style="fill:#22ff5f;fill-opacity:1;stroke:none;stroke-width:0.248535;stroke-linecap:round;stroke-linejoin:round"
       id="path1018-3-6"
       cx="-15.988577"
       cy="-190.21812"
       r="1.0994046"
       transform="rotate(113.57728)" />
  </g>
</svg>
